<?xml version="1.0" encoding="utf-8"?>
<!-- Generator: Adobe Illustrator 25.4.0, SVG Export Plug-In . SVG Version: 6.00 Build 0)  -->
<svg version="1.1" id="Layer_1" xmlns="http://www.w3.org/2000/svg" xmlns:xlink="http://www.w3.org/1999/xlink" x="0px" y="0px"
	 viewBox="0 0 24 24" style="enable-background:new 0 0 24 24;" xml:space="preserve">
<style type="text/css">
	.st0{fill:#FFFFFF;}
</style>
<path class="st0" d="M11,8l0-0.5c0-0.5-0.1-1-0.2-1.5h6l-0.6,2C16.2,8,11,8,11,8z M8.5,18C7.7,18,7,18.7,7,19.5
	C7,20.3,7.7,21,8.5,21s1.5-0.7,1.5-1.5C10,18.7,9.3,18,8.5,18z M19.8,3l-3.4,12H5.9l-0.5-1.1c-0.3,0-0.7,0.1-1,0.1
	c-0.4,0-0.8,0-1.2-0.1L4.6,17h13.2l3.5-12h1.9L24,3H19.8z M13.5,18c-0.8,0-1.5,0.7-1.5,1.5s0.7,1.5,1.5,1.5s1.5-0.7,1.5-1.5
	C15,18.7,14.3,18,13.5,18z M9,7.5C9,10,7,12,4.5,12C2,12,0,10,0,7.5S2,3,4.5,3C7,3,9,5,9,7.5z M7,7H5V5H4v2H2v1h2v2h1V8h2V7z"/>
</svg>
